<svg width="211" height="54" viewBox="0 0 211 54" fill="none" xmlns="http://www.w3.org/2000/svg">
<path fill-rule="evenodd" clip-rule="evenodd" d="M25.7137 0.215514C22.9966 0.599633 20.5111 1.19394 18.9758 1.82621C17.1272 2.58708 16.1895 3.076 14.1845 4.32354C12.4016 5.43284 11.6911 6.14782 12.3716 6.14782C12.4905 6.14782 12.6101 6.21297 12.6361 6.29229C12.682 6.42996 14.2043 5.68665 14.9578 5.15863C15.9317 4.47594 19.1928 3.13209 21.2012 2.58538C22.7898 2.15253 23.1411 2.06585 23.9829 1.89872C27.0842 1.28289 31.6993 1.32481 34.5536 1.9939C36.0005 2.3327 37.4005 2.70152 37.6446 2.80803C37.7806 2.86695 38.2344 3.02898 38.6531 3.16778C40.2468 3.69524 42.0053 4.49521 43.3673 5.3116C44.7548 6.14386 45.1627 6.26283 45.5208 5.93876C45.7944 5.69118 45.548 5.43284 44.1339 4.48331C42.6189 3.46579 38.7772 1.57239 38.2299 1.57296C38.1438 1.57296 37.9772 1.5214 37.8588 1.45852C37.5687 1.30328 36.6147 1.03644 35.4192 0.775829C34.8748 0.65742 34.2352 0.513517 33.9972 0.456863C31.918 -0.0416981 28.2808 -0.147642 25.7137 0.215514ZM26.7647 4.25046C23.6062 4.62608 21.8493 5.11387 19.1877 6.35461C18.556 6.64865 17.9855 6.88943 17.9203 6.88943C17.8546 6.88943 17.8014 6.94495 17.8014 7.01293C17.8014 7.08092 17.7317 7.13701 17.6467 7.13701C17.5617 7.13701 17.2892 7.31774 17.0416 7.53869L16.5906 7.94037L17.6597 7.96813C18.2478 7.98343 18.8398 7.94321 18.9758 7.87919C24.1166 5.44191 31.4897 5.22831 37.8917 7.33133C38.3676 7.4877 38.9296 7.60045 39.1397 7.58118C39.3505 7.56249 39.8236 7.58685 40.1907 7.63557C40.5584 7.68429 40.8796 7.70582 40.9045 7.68316C41.0926 7.51716 39.3533 6.52967 37.7681 5.90307C37.2243 5.68835 36.6118 5.44077 36.4079 5.35295C34.4861 4.52466 29.3736 3.94056 26.7647 4.25046ZM7.51287 8.58963C7.17124 8.98168 7.04547 9.33804 7.04547 9.91592C7.04547 10.6315 7.39672 12.9367 7.54912 13.224C7.61201 13.3418 7.66356 13.5378 7.66356 13.6585C7.66356 13.7798 7.88622 14.2596 8.15816 14.7248C8.4301 15.1905 8.65276 15.5972 8.65276 15.6284C8.65276 16.0307 10.1705 17.5405 11.2487 18.2113C11.9586 18.6526 12.2956 18.8249 13.2888 19.252C13.8401 19.4894 15.308 19.8764 17.0597 20.2452C20.8471 21.044 21.7751 21.3885 23.566 22.6615C25.7132 24.1878 28.1442 28.0556 27.7442 29.3088C26.5307 33.1086 23.8169 35.4955 20.2171 35.9306C19.1769 36.0558 19.0375 36.0348 19.0375 35.7521C19.0375 35.4292 19.7117 34.5862 20.0267 34.5148C20.5281 34.4009 20.6953 34.278 20.906 33.8661C21.063 33.559 22.2295 32.605 22.4482 32.605C22.4742 32.605 22.7609 32.4463 23.085 32.252C23.5597 31.967 23.7767 31.9098 24.2056 31.9563C24.8928 32.0311 25.2191 31.7631 25.2191 31.124C25.2191 30.498 24.8175 30.1326 24.1297 30.1326C23.8447 30.1326 23.6119 30.077 23.6119 30.0085C23.6119 29.9405 23.524 29.885 23.417 29.885C23.1875 29.885 23.2493 29.4652 23.6266 28.4635C24.0192 27.4205 23.9489 26.9695 23.2311 25.9197C21.583 23.5113 20.4398 23.0207 18.2161 23.7674L17.2892 24.0784L16.9436 23.8326C16.5023 23.5187 16.1555 23.0003 16.3193 22.8989C16.6552 22.6915 16.3198 21.7295 15.8054 21.4253C14.7777 20.8185 13.6208 22.0967 14.2066 23.1918C14.2905 23.3482 14.2327 23.5431 13.9902 23.9204C13.8083 24.2037 13.3965 24.8767 13.0747 25.4172C12.5217 26.3458 12.4667 26.3985 12.0566 26.3985C11.7676 26.3985 11.4929 26.5084 11.2334 26.7265C10.3354 27.4823 9.94278 26.8857 10.2606 25.2489C10.519 23.9204 11.515 21.3862 11.8645 21.1704C12.2192 20.9511 11.9914 20.3868 11.4186 20.0667C10.6906 19.66 10.4442 19.6645 10.2261 20.0871C10.1297 20.2741 9.82891 20.8446 9.5581 21.3545C9.28729 21.8644 9.03461 22.393 8.99722 22.5289C8.21821 25.3362 8.1321 26.1027 8.14513 30.1071C8.16099 34.9108 8.34512 36.8048 9.02044 39.0959C9.0805 39.2998 9.21534 39.7701 9.31958 40.1412C9.92182 42.285 11.7591 45.1143 14.0123 47.368C22.3326 55.6895 37.7528 55.0549 45.3151 46.0803C45.8256 45.4741 46.7315 44.2515 46.7315 44.1676C46.7315 44.1291 46.8754 43.8702 47.0516 43.5909C48.0266 42.0459 48.9727 39.6279 49.4396 37.4886C49.9234 35.2694 50.1217 28.1134 49.7665 25.6818C49.5143 23.9527 49.3302 23.317 48.6305 21.7528C48.4702 21.3941 48.3388 21.0752 48.3388 21.044C48.3388 21.0129 48.1671 20.7081 47.9569 20.367C47.5405 19.6905 47.37 19.6294 46.8742 19.9783C46.6935 20.1053 46.421 20.248 46.2675 20.2956C45.8749 20.418 46.0001 21.2463 46.485 21.7256C46.6312 21.87 47.3496 23.4258 47.3496 23.5975C47.3496 23.7011 47.3904 23.8269 47.4402 23.8768C47.7886 24.2252 47.9688 27.3973 47.7127 28.6737C47.0595 31.9268 44.7678 34.4921 41.5345 35.5895C40.4054 35.9725 37.3971 36.002 36.2844 35.64C33.6714 34.7913 31.5112 32.6764 30.4841 29.962C30.058 28.8374 30.1838 28.2278 31.1803 26.5758C31.4375 26.1497 31.6483 25.7509 31.6483 25.6897C31.6483 25.6285 31.6897 25.56 31.7407 25.5373C31.7916 25.5146 32.0268 25.2178 32.263 24.8778C34.0108 22.3618 36.4249 21.1075 41.2915 20.1851C42.9282 19.8752 44.2783 19.4877 45.2205 19.0566C45.5791 18.8923 45.9032 18.758 45.9406 18.758C45.9774 18.758 46.3796 18.5144 46.8334 18.2164C49.3727 16.549 50.9347 13.4653 50.9347 10.1193C50.9347 8.09334 49.6786 7.70072 48.771 9.44342C47.9099 11.0977 45.4397 12.4393 42.4121 12.896L41.2456 13.0721L40.372 12.5464C39.8921 12.2575 39.1652 11.8501 38.7568 11.6405C38.3489 11.4314 37.9041 11.1974 37.7681 11.121C36.8005 10.5754 34.685 9.92272 32.3899 9.46212C31.3067 9.24456 26.6723 9.24456 25.5902 9.46155C22.4901 10.0847 20.8125 10.7159 18.0971 12.2801C16.7753 13.0416 16.8665 13.0172 15.7612 12.8931C14.0383 12.6999 12.5047 12.1804 11.0674 11.3034C10.545 10.985 9.48162 9.89496 9.2482 9.43945C8.75474 8.47689 7.95364 8.08427 7.51287 8.58963ZM31.1537 11.27C33.1287 11.5368 34.9439 12.0184 36.5319 12.6971C37.933 13.2959 38.0769 13.3724 38.0769 13.522C38.0769 13.6081 37.8684 13.7135 37.6135 13.7571C37.116 13.8421 35.9478 14.1537 35.5427 14.3095C35.4068 14.3622 35.0283 14.4998 34.702 14.616C32.8817 15.2635 30.2761 17.2289 29.3969 18.6175C29.1663 18.9818 28.6807 19.0028 28.6807 18.6487C28.6807 18.4543 26.5568 16.4153 25.8571 15.9377C24.6356 15.1038 22.4278 14.1877 20.531 13.7265C20.2981 13.6699 20.0885 13.5645 20.0641 13.4925C20.0267 13.3804 21.2188 12.6999 21.4527 12.6999C21.4981 12.6999 21.71 12.62 21.9241 12.5226C24.3801 11.402 28.2439 10.8773 31.1537 11.27ZM11.1252 13.5888C11.5671 13.799 12.0243 14.0183 12.141 14.0755C12.2577 14.1333 12.5636 14.2336 12.8208 14.2976C13.0781 14.3622 13.6503 14.5072 14.0922 14.62C14.8576 14.816 15.1941 14.8704 17.492 15.1678C22.9127 15.8698 25.8497 17.4442 27.836 20.7137C28.7821 22.2712 29.2626 22.3947 29.8507 21.231C31.5633 17.8447 35.047 15.8817 40.6116 15.1667C42.8693 14.8766 43.2444 14.8165 44.0115 14.62C45.1168 14.3378 45.4868 14.2279 45.9893 14.033C46.7388 13.7424 48.0997 13.0455 48.2906 12.854C49.0045 12.1402 47.8351 14.6268 47.0793 15.4301C45.9434 16.6369 43.9305 17.7178 42.2484 18.0238C41.6716 18.1291 41.2275 18.2232 39.3754 18.6328C34.5785 19.6934 31.3412 22.0292 29.556 25.7186C29.0739 26.7146 28.9986 26.7106 28.4337 25.6563C26.3075 21.6859 23.1869 19.5291 18.1107 18.5212C15.2037 17.9439 12.2379 16.9349 12.2379 16.5235C12.2379 16.4697 12.1297 16.3915 11.9976 16.3496C11.745 16.2692 10.4816 15.0199 10.3949 14.765C10.3671 14.6834 10.2232 14.4217 10.0748 14.1837C9.92636 13.9458 9.76828 13.603 9.72353 13.4228C9.67934 13.2421 9.60399 12.9934 9.5564 12.8699C9.48161 12.6739 9.52411 12.6812 9.89633 12.9265C10.1303 13.0812 10.6833 13.3792 11.1252 13.5888ZM52.9941 14.0392C52.7 14.3633 52.7 14.3627 53.6989 16.4369C54.6184 18.3461 55.2523 19.8934 55.4857 20.7981C55.556 21.0701 55.6823 21.5432 55.7662 21.8491C55.85 22.155 55.9679 22.6558 56.0268 22.9618C56.0863 23.2677 56.2217 23.9629 56.3276 24.5073C56.4557 25.1668 56.5412 26.5469 56.5831 28.6488C56.6489 31.9234 56.5905 32.6984 56.097 35.0779C55.9633 35.7238 55.8268 36.3912 55.7945 36.5612C55.7163 36.9691 55.4535 37.871 55.0427 39.1378C54.7113 40.1604 54.7107 40.1701 54.9543 40.3497C55.1713 40.5089 55.2047 40.5077 55.2404 40.3383C55.262 40.2329 55.3594 40.1468 55.4563 40.1468C55.5537 40.1468 55.633 40.0947 55.633 40.0318C55.633 39.9684 55.8036 39.5372 56.0115 39.0732C56.22 38.6098 56.4353 38.1192 56.4908 37.9832C56.5458 37.8472 56.6551 37.5775 56.7333 37.3838C58.0885 34.0196 58.4465 27.6879 57.531 23.2705C57.0811 21.099 55.8347 17.6317 55.0552 16.3808C54.8971 16.127 54.7674 15.8913 54.7674 15.8573C54.7674 15.7332 53.9623 14.4851 53.6677 14.1531C53.3119 13.7509 53.262 13.7424 52.9941 14.0392ZM4.31981 14.2251C3.92776 14.676 3.02355 16.1734 2.65813 16.9779C2.47514 17.379 2.24796 17.8742 2.15278 18.0782C-0.415947 23.5878 -0.718489 31.6356 1.42079 37.5503C2.28534 39.9395 2.70742 40.7253 3.11987 40.7128C3.4683 40.7026 3.62069 40.2607 3.33628 40.0851C3.2683 40.0426 3.21279 39.876 3.21279 39.714C3.21279 39.552 3.16235 39.3882 3.1006 39.3503C3.03885 39.3117 2.89382 38.961 2.77881 38.5701C2.66323 38.1792 2.5216 37.7203 2.46267 37.5503C2.359 37.2478 1.94428 35.5034 1.80151 34.7686C1.05084 30.9002 1.231 25.7475 2.25305 21.8491C2.38676 21.3392 2.52556 20.7828 2.56125 20.6129C2.66776 20.1041 3.67735 17.6878 4.45918 16.0692C5.23422 14.4642 5.2767 14.3191 5.04215 14.0851C4.8195 13.8619 4.59855 13.9044 4.31981 14.2251ZM6.58543 18.1711C5.38435 19.4781 4.07167 24.0388 3.88924 27.5361C3.7901 29.4323 4.16062 33.1302 4.47165 33.3522C4.52377 33.3891 4.60025 33.6395 4.64274 33.9086C4.74868 34.5811 4.78098 34.5726 4.88126 33.8446C4.95264 33.325 4.99853 33.2384 5.1396 33.3556C5.40531 33.576 5.41721 33.4457 5.47727 29.6997C5.50956 27.7021 5.59511 25.9503 5.68065 25.5583C5.76167 25.1838 5.91237 24.4886 6.01492 24.0127C6.20415 23.1334 6.46759 22.2349 6.66644 21.7873C7.6647 19.5393 7.84147 18.5308 7.30438 18.1484C6.86361 17.8345 6.89533 17.8334 6.58543 18.1711ZM50.8231 18.5784C50.3902 19.0707 50.3936 19.1858 50.8707 20.4271C51.5601 22.2219 52.0644 24.151 52.4372 26.4234C52.6156 27.5134 52.5828 31.2804 52.3816 32.7483C52.1782 34.2344 52.2292 34.8304 52.5595 34.8304C52.6904 34.8304 52.8298 34.9148 52.8694 35.0185C53.0082 35.3805 53.3606 34.7522 53.5793 33.7517C53.6949 33.2231 53.8479 32.5959 53.9192 32.3579C54.8739 29.1808 53.4212 20.5732 51.5675 18.4181C51.2621 18.0634 51.2774 18.0606 50.8231 18.5784ZM16.0796 23.9612C16.598 24.6433 16.6178 24.7611 16.3238 25.3962C15.6995 26.7452 15.6275 26.7565 14.5505 25.6716L13.9579 25.075L14.2967 24.5436C14.8406 23.6915 14.9154 23.6314 15.4009 23.6473C15.7227 23.6581 15.9182 23.7487 16.0796 23.9612ZM37.15 23.7215C36.2923 24.0042 35.8725 24.2393 35.7518 24.5045C35.6815 24.6592 35.464 24.9736 35.2691 25.203C34.8238 25.7271 34.6164 26.2002 34.6108 26.7072L34.6068 27.1032L34.4402 26.803L34.2737 26.5027L34.1876 26.8959C33.761 28.8374 34.9014 30.5677 37.1098 31.328C38.4038 31.7738 40.1833 31.0945 41.0235 29.834C41.5192 29.0907 41.5867 29.0357 41.9198 29.102C42.3985 29.1978 42.6002 29.0057 42.7713 28.293C43.0682 27.0551 42.5277 25.4438 41.8682 25.5996C41.6513 25.6512 41.5538 25.5673 41.3532 25.1577C40.7873 24.0003 38.5862 23.2485 37.15 23.7215ZM42.5453 23.7963C42.4625 23.9515 42.5368 24.2745 42.8081 24.9396C43.3243 26.2075 43.3582 28.004 42.8993 29.7292C42.3311 31.8656 43.1979 31.6934 43.9826 29.5145C44.6154 27.7587 43.8415 23.5799 42.8841 23.5799C42.7611 23.5799 42.6087 23.6773 42.5453 23.7963ZM38.0152 23.951C38.2129 24.0354 38.1676 24.0586 37.7914 24.066C37.5075 24.0711 37.3512 24.0252 37.3971 23.951C37.4871 23.8048 37.6752 23.8048 38.0152 23.951ZM44.6353 24.9294C44.5497 25.0892 44.5486 25.377 44.6307 25.8115C44.7763 26.5797 44.7791 28.0964 44.6358 28.9581C44.4908 29.8334 44.9213 30.3818 45.34 29.8544C45.8278 29.2391 45.7361 25.1232 45.2273 24.8008C44.9633 24.6337 44.7712 24.675 44.6353 24.9294ZM46.2414 26.2914C45.8828 26.961 46.1502 28.7723 46.608 28.7723C46.9643 28.7723 47.102 28.3927 47.102 27.4126C47.102 26.4319 46.9643 26.0523 46.608 26.0523C46.4765 26.0523 46.3117 26.1599 46.2414 26.2914ZM13.7217 26.7327C13.7217 26.9933 13.6639 27.0415 13.3506 27.0415C12.72 27.0415 12.8673 26.4619 13.5052 26.433C13.6559 26.4262 13.7217 26.5169 13.7217 26.7327ZM14.8859 26.7457C15.159 26.8506 15.1301 27.0415 14.8417 27.0415C14.5834 27.0415 14.4202 26.8789 14.5488 26.7497C14.6457 26.6528 14.6445 26.6528 14.8859 26.7457ZM11.1303 27.8499C11.6283 28.327 12.239 28.3797 12.6684 27.9819C13.2525 27.4403 13.7828 27.5287 13.9505 28.195C14.3709 29.8651 14.2236 30.6634 13.695 29.5762C13.5466 29.2703 13.3806 29.0199 13.3256 29.0199C13.2712 29.0199 13.2271 28.9451 13.2271 28.8533C13.2271 28.6034 12.7755 28.2318 12.6735 28.3972C12.5874 28.5355 12.9273 29.1859 13.6996 30.3626C14.0638 30.9172 14.1109 31.0628 13.9896 31.2571C13.3222 32.3257 14.3703 33.4061 15.5301 32.8446L16.0564 32.5897L17.4546 33.0508C18.816 33.4995 19.2851 33.7902 19.2851 34.1862C19.2851 34.3414 18.3345 35.9431 18.2421 35.9431C15.8496 35.9431 12.4311 33.661 11.2878 31.3008C10.038 28.7213 9.94674 26.7163 11.1303 27.8499ZM15.6672 27.8607C15.8196 27.9015 15.9153 27.9814 15.8807 28.038C15.8456 28.0941 15.9924 28.5117 16.2065 28.9649C16.4207 29.4187 16.547 29.8249 16.487 29.868C16.4269 29.9116 16.2224 30.1558 16.0326 30.4107C15.406 31.2515 15.044 31.0158 14.8462 29.638C14.7732 29.1281 14.6774 28.502 14.6338 28.2471C14.5488 27.7514 14.8451 27.6403 15.6672 27.8607ZM23.3841 30.9218C23.5473 31.1535 23.3223 31.362 22.106 32.1064C20.5814 33.0389 20.4596 33.035 20.4596 32.0526V31.3178L20.9542 31.2198C21.5904 31.0929 22.4096 30.7399 22.536 30.5388C22.634 30.3813 23.1756 30.626 23.3841 30.9218ZM18.3758 31.1937C18.8948 31.345 19.1395 31.3648 19.2936 31.2679C19.5253 31.124 19.6557 31.4906 19.6557 32.2837C19.6557 32.7659 19.2625 33.1545 18.9435 32.9868C18.8251 32.9251 18.4506 32.7806 18.1107 32.6662C17.7702 32.5517 17.3254 32.3851 17.1215 32.2968C16.9175 32.2078 16.6416 32.1155 16.5085 32.0911C16.1051 32.018 15.9986 30.9977 16.394 30.9977C16.4881 30.9977 16.5651 30.9467 16.5651 30.8844C16.5651 30.6289 17.2229 30.5427 17.449 30.7688C17.5691 30.8895 17.9866 31.0804 18.3758 31.1937ZM29.5238 32.1047C29.7305 32.5092 30.1334 33.1494 30.4189 33.5273L30.9373 34.214L30.0506 35.6966C28.9742 37.4971 29.0569 37.4931 28.032 35.785C27.0808 34.1992 27.0751 34.1732 27.5448 33.5913C27.9771 33.0559 28.6207 32.001 28.7351 31.6401C28.8796 31.1858 29.1283 31.3325 29.5238 32.1047ZM11.2288 34.3528C14.6264 38.0659 20.6817 38.7979 25.0191 36.0201C25.8916 35.4615 25.6854 35.2949 27.2547 37.8263C29.0564 40.7326 28.9827 40.736 30.8461 37.6586C32.2239 35.3827 32.182 35.4173 32.9372 35.9368C35.8798 37.9611 40.0587 38.335 43.2551 36.8597C44.9995 36.0547 47.3955 34.1539 47.6997 33.3341C47.8221 33.0038 47.9677 33.3092 47.9677 33.8961C47.9677 34.7255 47.5167 37.8563 47.353 38.1617C47.2425 38.3684 45.9253 38.663 45.1089 38.663C44.3424 38.663 39.3222 40.1032 37.8996 40.7315C37.1495 41.0629 36.9336 41.1734 35.8028 41.8028C33.2176 43.2424 30.8891 45.6401 29.6869 48.1011C29.049 49.4065 28.9487 49.4178 28.3918 48.245C26.9743 45.2593 24.6673 43.0254 21.2012 41.2816C19.4268 40.3887 18.6143 40.0743 16.998 39.6534C13.4435 38.7288 13.269 38.6908 12.1144 38.5877C10.5637 38.45 10.5286 38.4053 10.2663 36.2524C9.92635 33.4599 9.95751 32.618 10.3768 33.3058C10.4946 33.4984 10.8776 33.9698 11.2288 34.3528ZM13.1035 40.5706C15.5204 40.9564 18.1175 41.6992 19.8806 42.5082C20.3106 42.7054 20.6873 42.8668 20.7185 42.8668C20.8856 42.8668 22.5796 44.0124 23.5048 44.7512C24.4639 45.5171 25.1285 46.2372 26.1109 47.5748C27.2434 49.1158 28.0281 51.4976 27.3828 51.4353C20.2896 50.7486 14.5907 47.1839 12.0039 41.8159C11.5637 40.902 11.3722 40.4845 11.3722 40.4369C11.3722 40.3519 12.073 40.4057 13.1035 40.5706ZM46.608 40.4562C46.608 40.4907 46.3621 41.034 46.0618 41.6635C44.3758 45.2004 40.955 48.3793 37.2118 49.8886C35.0334 50.7667 33.6295 51.1282 31.5956 51.3344C31.1248 51.3826 30.6665 51.4494 30.577 51.484C30.2926 51.5933 30.2427 51.1412 30.4671 50.4857C32.0234 45.9347 36.1274 42.6634 42.1849 41.1473C44.271 40.625 46.608 40.2601 46.608 40.4562ZM75.5293 14.3035C69.6053 15.0299 66.531 17.8727 66.531 22.6254C66.531 26.5158 68.7306 28.7338 73.9019 30.0577C78.3993 31.2089 79.1063 31.4028 80.125 31.766C82.5737 32.639 82.8773 35.1685 80.683 36.4109C79.6749 36.9812 74.9951 37.1268 73.5193 36.6337C71.5487 35.9748 69.4176 35.0246 68.7947 34.5271C68.2033 34.0551 67.8743 34.3876 66.8399 36.5065C65.6326 38.9772 65.6168 38.9202 67.8251 40.0906C71.8453 42.22 78.3368 42.778 82.5176 41.3523C89.6498 38.9211 90.6877 30.4596 84.2407 27.3054C82.822 26.6105 82.2141 26.4227 78.4018 25.5006C74.1623 24.475 73.5641 24.2056 72.9684 23.0545C71.1443 19.5265 78.514 17.8586 83.7318 20.618C85.1927 21.3901 85.3006 21.362 85.7533 20.0872C85.9481 19.537 86.3201 18.6404 86.5789 18.0929C87.2352 16.7066 87.1475 16.5127 85.5033 15.7125C83.9354 14.9492 82.0666 14.4667 80.0285 14.2965C79.2915 14.2359 78.4299 14.1561 78.114 14.121C77.7982 14.0859 76.6348 14.1675 75.5293 14.3035ZM183.081 14.6316C182.814 14.8352 182.228 16.0416 180.502 19.945C180.339 20.3135 179.925 21.2181 179.582 21.9551C179.239 22.6921 178.725 23.8555 178.441 24.5399C177.932 25.7638 177.662 26.3692 176.433 29.0391C176.093 29.777 175.661 30.7675 175.474 31.2413C175.143 32.0748 174.503 33.4988 173.349 35.9722C173.043 36.6258 172.793 37.2014 172.793 37.2514C172.793 37.3005 172.545 37.8857 172.241 38.5517C170.573 42.2086 170.419 41.9629 174.372 41.9629C177.716 41.9629 177.482 42.1182 178.72 39.0913C179.258 37.7752 179.775 36.5741 179.869 36.4231C180.04 36.1485 191.169 35.9116 192.259 36.1591C192.568 36.2292 192.855 36.6785 193.382 37.9112C195.298 42.4051 194.736 41.9568 198.458 41.9603C202.25 41.9638 202.162 42.0384 201.111 39.7133C200.885 39.2132 200.275 37.8559 199.753 36.6978C199.232 35.5396 198.608 34.1613 198.365 33.6348C197.531 31.8195 197.137 30.9509 196.67 29.9007C196.413 29.3216 195.969 28.331 195.684 27.6993C195.399 27.0676 195.051 26.292 194.909 25.9762C194.769 25.6603 194.399 24.8417 194.087 24.1573C193.777 23.473 193.327 22.4815 193.089 21.9551C192.851 21.4287 192.366 20.3671 192.011 19.5958C191.655 18.8246 191.365 18.1604 191.365 18.1192C191.365 18.0788 190.981 17.2234 190.512 16.2188L189.658 14.3921H186.528C184.319 14.3921 183.304 14.4631 183.081 14.6316ZM203.657 14.622C203.324 14.9545 203.324 41.4014 203.657 41.7331C204.034 42.1112 209.441 42.0489 209.827 41.662C210.195 41.2944 210.294 15.4423 209.93 14.7632C209.689 14.3114 204.093 14.1859 203.657 14.622ZM97.7734 20.8101C90.6982 22.5359 87.8353 30.0858 91.5142 37.3181C93.8103 41.8313 101.233 43.4931 105.342 40.4126C106.603 39.4677 106.738 39.4764 106.738 40.5038C106.738 41.7296 106.893 41.791 109.828 41.7296L112.386 41.676V31.337V20.9979H109.61H106.833L106.774 21.8595C106.692 23.0343 106.515 23.1343 105.759 22.4324C103.936 20.7417 100.727 20.0898 97.7734 20.8101ZM122.469 20.9145C113.066 23.3423 112.504 36.7574 121.672 39.9353C124.924 41.0627 128.873 40.6267 131.052 38.9009C131.886 38.2411 132.011 38.3025 132.011 39.3755C132.011 42.8851 130.169 44.3591 125.788 44.3529C122.773 44.3494 121.597 44.0555 119.526 42.7868C118.58 42.2069 118.496 42.2648 117.206 44.4135C115.904 46.5824 115.901 46.5666 117.766 47.522C123.429 50.42 131.638 49.9199 135.181 46.4604C137.739 43.9634 137.913 42.9877 137.965 30.8579L138.008 20.9979L135.201 20.9452L132.394 20.8917V21.8428C132.394 23.1098 132.32 23.1203 130.75 22.0657C128.469 20.5346 125.526 20.1258 122.469 20.9145ZM149.339 20.8005C138.673 23.0632 137.758 37.5848 148.049 41.2681C151.89 42.642 157.031 42.1051 159.869 40.0327C161.753 38.6578 161.744 38.7561 160.13 37.0189C158.346 35.0992 158.453 35.1334 157.068 36.0292C154.677 37.5743 150.861 37.5181 148.749 35.9072C148.087 35.4028 146.951 33.6971 146.947 33.204C146.945 33.0163 148.6 32.9645 154.588 32.9645C163.618 32.9645 162.837 33.1216 162.837 31.3063C162.837 23.9784 156.737 19.2308 149.339 20.8005ZM186.694 21.8121C186.848 22.3069 189.828 29.5585 190.037 29.9463C190.522 30.8456 190.469 30.8579 186.291 30.8579C184.004 30.8579 182.366 30.7842 182.366 30.6807C182.366 30.5833 182.721 29.6568 183.155 28.6223C184.159 26.228 184.248 26.0104 185.249 23.5353C186.047 21.5621 186.463 21.0663 186.694 21.8121ZM152.92 25.1383C155.161 25.6129 156.901 27.2299 156.901 28.8382V29.3269H151.924C146.278 29.3269 146.507 29.405 147.346 27.7607C148.177 26.1306 149.478 25.3023 151.77 24.9444C151.844 24.9321 152.362 25.0198 152.92 25.1383ZM128.639 25.7401C131.865 26.6789 133.115 31.3598 130.809 33.8621C127.508 37.4427 121.098 35.2474 121.098 30.5359C121.098 26.8667 124.682 24.5881 128.639 25.7401ZM103.166 25.8042C107.352 27.2299 107.769 34.7877 103.766 36.6872C99.723 38.6061 95.9222 35.9081 95.9573 31.1457C95.9888 26.8939 99.2571 24.4723 103.166 25.8042Z" fill="#3CC668"/>
</svg>
